<svg xmlns="http://www.w3.org/2000/svg" xmlns:xlink="http://www.w3.org/1999/xlink" width="449" height="592" viewBox="0 0 449 592">
  <defs>
    <clipPath id="clip-path">
      <path id="Path_2651" data-name="Path 2651" d="M106.719,10.8c7.551-23.206,27.1-62.991,15.655-69.915C107.458-68.145,64.539-73.68,64.539-73.68v.738S21.255-69.324,6.339-60.3c-11.448,6.925,8.47,48.627,16.027,71.833,1.812,5.572,1.613,30.54.918,52.678-.174,5.46-4.6,30.577-3.847,40.958.223,3.1,35.28,22.281,45.1,22.771v-.738c9.828-.49,44.885-19.669,45.109-22.771.757-10.381-3.679-35.491-3.847-40.958-.695-22.139-.893-47.107.918-52.678" transform="translate(-2.87 73.68)" fill="none" clip-rule="evenodd"/>
    </clipPath>
    <clipPath id="clip-path-2">
      <path id="Path_2650" data-name="Path 2650" d="M-335,2356.676H2072.448V-88H-335Z" transform="translate(335 88)" fill="none"/>
    </clipPath>
    <clipPath id="clip-path-3">
      <path id="Path_2654" data-name="Path 2654" d="M18.9-71.66c-8.767-.453-16.312,9.313-16.889,25.65s.813,27.549.776,31.8C2.735-9.824.582,15.572,1.1,22.441s4.734,13.1,11.7,13.353c5.826.2,13.284-9.94,15.977-21.5S42.439-70.444,18.9-71.66" transform="translate(-1.022 71.675)" fill="none" clip-rule="evenodd"/>
    </clipPath>
    <clipPath id="clip-path-5">
      <path id="Path_2657" data-name="Path 2657" d="M25.155-70.908c7.9-3.822,18.645,2.252,25.52,17.082s9.94,25.7,11.634,29.6C64.053-20.2,75.9,2.376,78.088,8.9s.726,13.911-5.6,16.846c-5.286,2.451-16.1-4-23.069-13.607S3.929-60.646,25.155-70.908" transform="translate(-18.84 72.024)" fill="none" clip-rule="evenodd"/>
    </clipPath>
    <clipPath id="clip-path-7">
      <path id="Path_2660" data-name="Path 2660" d="M29.19,2.3c-5.411-4.66-7.4-11.367,4.982-27.357s40.871-43.1,40.871-43.1L83.8-60.628S71.55-29.53,65.209-20.552,43.35,14.493,29.19,2.3" transform="translate(-24.963 68.161)" fill="none" clip-rule="evenodd"/>
    </clipPath>
    <clipPath id="clip-path-9">
      <path id="Path_2663" data-name="Path 2663" d="M33.232-71.319S40.9-63.2,44.7-54.132,58.9-19.72,58.9-19.72s-2.358,9-12.838,15.462S33.232,3.349,33.232,3.349,21.71-18.7,20.915-22,21-63.855,33.232-71.319" transform="translate(-20.7 71.319)" fill="none" clip-rule="evenodd"/>
    </clipPath>
    <clipPath id="clip-path-11">
      <path id="Path_2666" data-name="Path 2666" d="M15.478-71.621s-9.8,5.38-12.645,14.153S.7,2.569.7,2.569s29.286,8.19,30.838,8.085,2.228-3.611,2.228-3.611-4.418-77.3-18.292-78.664" transform="translate(-0.623 71.621)" fill="none" clip-rule="evenodd"/>
    </clipPath>
    <clipPath id="clip-path-13">
      <path id="Path_2669" data-name="Path 2669" d="M56.6-52.746c-.987-4.424-3.437-26.277-3.437-26.277H38.671v.732H24.183s-2.457,21.859-3.437,26.277S7.84-40.92,7.84-40.92H38.671v-.738H69.509S57.584-48.328,56.6-52.746" transform="translate(-7.84 79.023)" fill="none" clip-rule="evenodd"/>
    </clipPath>
    <clipPath id="clip-path-15">
      <path id="Path_2672" data-name="Path 2672" d="M55.623-58.913C54.7-65.608,53.606-75.139,53.265-78.1l-.931-.918H38.671v.732H24.183s-2.457,21.859-3.437,26.277S7.84-40.92,7.84-40.92H9.292c13.762-3.667,27.45-7.328,29.293-7.855,3.847-1.1,17.038-10.139,17.038-10.139" transform="translate(-7.84 79.023)" fill="none" clip-rule="evenodd"/>
    </clipPath>
    <clipPath id="clip-path-17">
      <path id="Path_2675" data-name="Path 2675" d="M63.014-54.6C61.86-36.19,53.061-18.029,41.223-17.781,29.918-17.539,9.678-34.565,9.287-53.012S19.611-86.635,36.532-87.46C50.753-88.149,64.2-73.568,63.014-54.6" transform="translate(-9.276 87.484)" fill="none" clip-rule="evenodd"/>
    </clipPath>
    <clipPath id="clip-path-19">
      <path id="Path_2678" data-name="Path 2678" d="M29.3-48.784C11.615-48.84,4.74-36.5,5.23,1.314s6.13,78.831,8.587,84.726,27.512,6.019,29.969,2.581S52.38,6.718,52.38-5.561,48.558-48.728,29.3-48.784" transform="translate(-5.206 48.784)" fill="none" clip-rule="evenodd"/>
    </clipPath>
    <clipPath id="clip-path-21">
      <path id="Path_2681" data-name="Path 2681" d="M23.672,12.514,19.006,12.4A12.8,12.8,0,0,1,6.547-.671l.378-15.71A12.8,12.8,0,0,1,20-28.841l4.666.112A12.809,12.809,0,0,1,37.124-15.656L36.746.055A12.8,12.8,0,0,1,23.672,12.514" transform="translate(-6.543 28.845)" fill="none" clip-rule="evenodd"/>
    </clipPath>
    <clipPath id="clip-path-23">
      <path id="Path_2684" data-name="Path 2684" d="M23.952-25.909c-5.4,0-18.664,1.787-17.926,37.042S21.744,94.687,21.744,94.687H34.513s6.23-65.28,6.261-77.8c.068-28.486.248-42.794-16.821-42.794" transform="translate(-5.997 25.909)" fill="none" clip-rule="evenodd"/>
    </clipPath>
    <clipPath id="clip-path-25">
      <path id="Path_2687" data-name="Path 2687" d="M35.9-48.9c17.684-.056,24.558,12.279,24.068,50.1s-6.13,78.831-8.587,84.726S23.86,91.939,21.409,88.5s-8.6-81.9-8.6-94.182S16.637-48.847,35.9-48.9" transform="translate(-12.809 48.903)" fill="none" clip-rule="evenodd"/>
    </clipPath>
    <clipPath id="clip-path-27">
      <path id="Path_2690" data-name="Path 2690" d="M27.6,12.4l4.666-.112A12.817,12.817,0,0,0,44.727-.784L44.349-16.5A12.809,12.809,0,0,0,31.275-28.96l-4.666.112A12.813,12.813,0,0,0,14.15-15.775L14.529-.058A12.809,12.809,0,0,0,27.6,12.4" transform="translate(-14.146 28.964)" fill="none" clip-rule="evenodd"/>
    </clipPath>
    <clipPath id="clip-path-29">
      <path id="Path_2693" data-name="Path 2693" d="M30.847-26.028c5.4,0,18.664,1.787,17.926,37.049S33.056,94.568,33.056,94.568H20.287s-6.236-65.28-6.261-77.8c-.074-28.486-.248-42.794,16.821-42.794" transform="translate(-14.015 26.028)" fill="none" clip-rule="evenodd"/>
    </clipPath>
    <clipPath id="clip-path-31">
      <path id="Path_2696" data-name="Path 2696" d="M12.222-50.006s-6.354,31.154-7.34,48.1,7.309,91.018,7.34,99.171-.521,33.2,0,57.76,6.856,72.9,6.856,72.9l31.44-.782s.043-103.824.043-120.143S54.489,4.726,54.489,4.726V-48.691L12.222-50.006" transform="translate(-4.801 50.006)" fill="none" clip-rule="evenodd"/>
    </clipPath>
    <clipPath id="clip-path-33">
      <path id="Path_2699" data-name="Path 2699" d="M126.217-58.815c-1.65-3.394-12.391-5.895-22.008-8.873-8.482-2.631-16.077-5.957-16.077-5.957L64.591-60.168,41.05-73.651s-7.595,3.332-16.077,5.957C15.356-64.71,4.616-62.216,2.965-58.822,1.3-55.378,18.545,10.721,20.481,16.343S17.46,61.3,22.368,73.061l42.18,1.315v.006l.087-.006,42.18-1.309c3.853-13.489-.105-51.841,1.83-57.462s19.241-70.976,17.572-74.42" transform="translate(-2.852 73.651)" fill="none" clip-rule="evenodd"/>
    </clipPath>
    <clipPath id="clip-path-35">
      <path id="Path_2702" data-name="Path 2702" d="M55.062-50.005s6.354,31.154,7.34,48.1-7.309,91.011-7.34,99.165.521,33.2,0,57.76-6.949,72.906-6.949,72.906l-31.44-.782s.05-103.824.05-120.149S12.795,4.721,12.795,4.721V-48.69l42.267-1.315" transform="translate(-12.795 50.005)" fill="none" clip-rule="evenodd"/>
    </clipPath>
    <clipPath id="clip-path-37">
      <path id="Path_2705" data-name="Path 2705" d="M62.67-66.221S47.53-76.26,29.927-63.3c-3.791,2.792-.782,17.069-1.775,18.18-1.067,1.185-4.139-11.268-4.9-9.828-5.5,10.4-3.22,24.434-4.635,24.366-4.281-.23-14.829-24.106-6.279-41.33s27.531-16.734,31.911-15.22S60.9-81.813,62.67-66.221" transform="translate(-9.088 87.819)" fill="none" clip-rule="evenodd"/>
    </clipPath>
    <clipPath id="clip-path-39">
      <path id="Path_2708" data-name="Path 2708" d="M19.179-76.26c.918,5.206.844,12.068-1.9,12.552s-5.7-3.344-6.62-8.556.552-9.822,3.289-10.306,4.312,1.1,5.231,6.31" transform="translate(-10.385 82.653)" fill="none" clip-rule="evenodd"/>
    </clipPath>
    <clipPath id="clip-path-41">
      <path id="Path_2711" data-name="Path 2711" d="M16.173-4.716S5.445,7.849,6.015,11.168c.323,1.88,4.865,8.711,13.092,9.208,6.261.372,16.461-5.349,18.056-5.51,3.679-.385,3.642-20.19,3.642-20.19l-24.633.608" transform="translate(-5.993 5.324)" fill="none" clip-rule="evenodd"/>
    </clipPath>
    <clipPath id="clip-path-43">
      <path id="Path_2714" data-name="Path 2714" d="M38.439-4.716S49.167,7.849,48.6,11.168c-.329,1.88-4.865,8.711-13.1,9.208-6.261.372-16.461-5.349-18.05-5.51-3.686-.385-3.642-20.19-3.642-20.19l24.633.608" transform="translate(-13.806 5.324)" fill="none" clip-rule="evenodd"/>
    </clipPath>
    <clipPath id="clip-path-45">
      <path id="Path_2717" data-name="Path 2717" d="M72.931,54.032c-4.058-2.538-10.139-5.069-13.83-7.353s-.112-10.139-.155-14.19,11.2-11.665,18.8-14.451,20.786-1.775,23.826-7.1S96.5.547,92.953.547,66.6-6.042,63.046-5.533s-30.416,3.295-34.728,0S2.581-70.826,2.581-70.826C7.4-50,20.662-1.941,21.89,1.639c1.936,5.621-3.022,44.96,1.886,56.718l42.18,1.315v.006l.087-.006,42.18-1.309a129.767,129.767,0,0,1-12.987-2.438c-3.8-1.154-18.248.645-22.306-1.892" transform="translate(-2.581 70.826)" fill="none" clip-rule="evenodd"/>
    </clipPath>
    <clipPath id="clip-path-47">
      <path id="Path_2720" data-name="Path 2720" d="M26.905,12.762c.6,11.224-5.193,85.632-5.336,89.87-.143,4.145-1.6,119.7-1.669,125.032l10.35.261s6.428-48.348,6.949-72.906-.031-49.607,0-57.76S45.52,15.04,44.539-1.906s-7.34-48.1-7.34-48.1l-19.936.62-1.036.695S26.31,1.538,26.905,12.762" transform="translate(-16.227 50.005)" fill="none" clip-rule="evenodd"/>
    </clipPath>
    <clipPath id="clip-path-49">
      <path id="Path_2723" data-name="Path 2723" d="M31.584-39.418C25.739-49.693,10.146-46.2,9.147-34.423c-1.024,12.1-1.272,20.476-.2,26.048,2.68,14.023,6.589,82.592,6.087,84.391s.031,127.719.031,127.719l.558.335,16.939-.422S32.6,99.823,32.6,83.5,36.529-18.769,36.529-18.769v-4.666l.316-6.732-5.262-9.251" transform="translate(-8.252 45.492)" fill="none" clip-rule="evenodd"/>
    </clipPath>
    <clipPath id="clip-path-51">
      <path id="Path_2726" data-name="Path 2726" d="M2.595-21.944c3.1,6.428,9.028,10.1,27.475,2.383s58.9-31.167,58.9-31.167L83.951-61.133S43.788-54.37,33.587-50.622-5.515-38.783,2.595-21.944" transform="translate(-1.178 61.133)" fill="none" clip-rule="evenodd"/>
    </clipPath>
    <clipPath id="clip-path-53">
      <path id="Path_2729" data-name="Path 2729" d="M14.826-39.3s4.691-2.668,6.347-5.088S31.4-65.352,32.715-65.327s-4.151,26.6-3.735,27.9-1.737,8.19-9.14,8.532S14.826-39.3,14.826-39.3" transform="translate(-14.459 65.327)" fill="none" clip-rule="evenodd"/>
    </clipPath>
    <clipPath id="clip-path-55">
      <path id="Path_2732" data-name="Path 2732" d="M37.325-67.556c-6.751-.875-14.01,16.35-16,35.448C17.861,1.081,11.048,11.238,22.874,13.72c10.734,2.259,12.838-11.187,20.24-38.947,5.8-21.7,8.2-40.511-5.789-42.329" transform="translate(-16.208 67.588)" fill="none" clip-rule="evenodd"/>
    </clipPath>
    <clipPath id="clip-path-57">
      <path id="Path_2735" data-name="Path 2735" d="M48.391,195.215l-6.211-.3L53.7-41.528l6.2.3L48.391,195.215" transform="translate(-42.18 41.528)" fill="none" clip-rule="evenodd"/>
    </clipPath>
    <clipPath id="clip-path-59">
      <path id="Path_2738" data-name="Path 2738" d="M61.705-34.4a9.307,9.307,0,0,1-9.754,8.848A9.311,9.311,0,0,1,43.1-35.3a9.319,9.319,0,0,1,9.754-8.848A9.314,9.314,0,0,1,61.705-34.4" transform="translate(-43.092 44.164)" fill="none" clip-rule="evenodd"/>
    </clipPath>
    <clipPath id="clip-path-61">
      <path id="Path_2741" data-name="Path 2741" d="M48.949,12.544l-4.17-.2A3.147,3.147,0,0,1,41.8,9.064l.534-10.889A3.142,3.142,0,0,1,45.611-4.8l4.17.2a3.143,3.143,0,0,1,2.978,3.282L52.231,9.572a3.142,3.142,0,0,1-3.282,2.972" transform="translate(-41.797 4.808)" fill="none" clip-rule="evenodd"/>
    </clipPath>
    <clipPath id="clip-path-63">
      <path id="Path_2744" data-name="Path 2744" d="M45.07-6.728s3,2.476,3.158,3.481-.3,14.513-.3,14.513a21.306,21.306,0,0,0-6.515,4.014c-2.68,2.407-5.131,7.632-8.743,9.127-4.436,1.837-9.574,1.986-11.559,1.154-1.638-.689-1.067-4.356,1.291-8.122,3.574-5.715,7.874-12.608,7.874-12.608L45.07-6.728" transform="translate(-20.174 6.728)" fill="none" clip-rule="evenodd"/>
    </clipPath>
    <clipPath id="clip-path-65">
      <path id="Path_2747" data-name="Path 2747" d="M24.463-37.25C19.078-29,18.1-13.486,18.892,6.86,19.971,34.589,29.359,75.714,30.178,79.7c3.723,18.2,21.431,18.813,25.21,4.871,1.036-3.841,10.256-81.841,9.959-90.7s-.031-25.03-5.622-35.28c-4.157-7.626-27.233-8.141-35.262,4.151" transform="translate(-18.649 46.857)" fill="none" clip-rule="evenodd"/>
    </clipPath>
    <clipPath id="clip-path-67">
      <path id="Path_2750" data-name="Path 2750" d="M37.216-27.782c9.791-.019,13.489,5.82,14.271,33.152.6,21.078-3.27,69.413-5.28,90.962-.6,6.391,2.24,10.25,1.626,10.356-2.693.472-15.754,4.958-13.229-2.656.4-1.21.112-6.838-.565-10.176C29.913,73.511,20.1,20.708,19.874,13.076,19.613,4.2,21.549-27.745,37.216-27.782" transform="translate(-19.853 27.782)" fill="none" clip-rule="evenodd"/>
    </clipPath>
    <clipPath id="clip-path-69">
      <path id="Path_2753" data-name="Path 2753" d="M41.3-67.542c6.633-1.52,16.194,17.907,20.73,39.9C69.918,10.57,78.09,21.838,66.586,25.6,56.15,29.017,52.259,13.585,41.153-18.046c-8.687-24.726-13.595-46.35.149-49.5" transform="translate(-32.723 67.625)" fill="none" clip-rule="evenodd"/>
    </clipPath>
    <clipPath id="clip-path-71">
      <path id="Path_2756" data-name="Path 2756" d="M117.1-56.185c-2.525-5.69-18.813-8.687-24.807-10.474C86.174-68.483,68.074-69.1,68.074-69.1s-18.1.62-24.217,2.445c-5.994,1.787-22.281,4.784-24.807,10.474-3.822,8.612,21.934,67.557,21.934,93.977,0,10.6-22.9,42.6-20.246,52.858C23.977,103.2,65.63,110.959,65.63,110.959h4.889s41.653-7.762,44.891-20.308c2.649-10.263-14.8-40.039-14.8-50.643,0-26.42,20.308-87.58,16.486-96.192" transform="translate(-18.664 69.103)" fill="none" clip-rule="evenodd"/>
    </clipPath>
    <clipPath id="clip-path-73">
      <path id="Path_2759" data-name="Path 2759" d="M69.294-36.412c5.063,8.451,5.435,23.994,3.853,44.29-2.153,27.673-13.142,68.4-14.11,72.354-4.424,18.037-22.151,17.963-25.377,3.89C32.766,80.237,26.586,1.939,27.232-6.9s1.005-25.011,6.987-35.032c4.455-7.464,27.531-7.08,35.076,5.516" transform="translate(-27.184 46.857)" fill="none" clip-rule="evenodd"/>
    </clipPath>
    <clipPath id="clip-path-75">
      <path id="Path_2762" data-name="Path 2762" d="M38.921-27.9C29.3-26.038,23.5-18.363,33.951,8.293,39.262,21.851,57.877,14.827,58.5,6.922,59.763-9.13,54.3-30.871,38.921-27.9" transform="translate(-28.393 28.174)" fill="none" clip-rule="evenodd"/>
    </clipPath>
    <clipPath id="clip-path-77">
      <path id="Path_2765" data-name="Path 2765" d="M60.027-51.515c-1.83-4.772-1.65-22.753-1.65-22.753H35.506s.18,17.981-1.65,22.753S22.724-39.776,22.724-39.776H71.158s-9.295-6.968-11.131-11.739" transform="translate(-22.724 74.268)" fill="none" clip-rule="evenodd"/>
    </clipPath>
    <clipPath id="clip-path-79">
      <path id="Path_2768" data-name="Path 2768" d="M58.643-61.921,47.27-74.268H35.506s.18,17.981-1.65,22.753S22.724-39.776,22.724-39.776l.174,4.213L58.792-59.476c-.056-.807-.105-1.619-.149-2.445" transform="translate(-22.724 74.268)" fill="none" clip-rule="evenodd"/>
    </clipPath>
    <clipPath id="clip-path-81">
      <path id="Path_2771" data-name="Path 2771" d="M123.014,70.235c-3.382-22.765-18.155-45.63-18.949-54.509s14.128-66.05,14.128-66.05c-4.077-8.8-35.628-13.638-47.783-14.631-11.454-.931-41.262-1.2-45.338,7.595,0,0-1.471,12.589,4.387,30.534,3.4,10.4,10.182,13.39,9.729,41.8-.136,8.916-17.367,36.676-19.557,55.26-3.351,28.474-.366,101.826-.366,101.826s29.473,7.564,49.26,7.564a293.834,293.834,0,0,0,70.182-8.445S126.228,91.9,123.014,70.235" transform="translate(-18.04 65.399)" fill="none" clip-rule="evenodd"/>
    </clipPath>
    <clipPath id="clip-path-83">
      <path id="Path_2774" data-name="Path 2774" d="M103.134,24.233c1.129-3.549-7.222-36.441-8.463-43.545-.962-5.51-23.435-3.2-32.649-4.56S41.427-20.8,34.546-27.825s-4.982-36.931-4.982-36.931L25.072-60.7c-.5,9.754-1.377,14.823,2.091,28.139,3.22,12.378,12.478,15.785,12.025,44.2C39.051,20.547,21.82,48.307,19.63,66.89c-3.351,28.474-.366,101.826-.366,101.826L34.143,172.1s1.44-104.265,8.035-111.872S62.455,44.007,68.524,42.487,102,27.782,103.134,24.233" transform="translate(-18.04 64.756)" fill="none" clip-rule="evenodd"/>
    </clipPath>
    <clipPath id="clip-path-85">
      <path id="Path_2777" data-name="Path 2777" d="M29.268-6.777S24.2,9.256,21.9,13.754c-1.688,3.295-1.4,5.7,3.8,4.182s14.718-13.6,16.275-19.21c1.713-6.186-12.7-5.5-12.7-5.5" transform="translate(-20.977 6.8)" fill="none" clip-rule="evenodd"/>
    </clipPath>
    <clipPath id="clip-path-87">
      <path id="Path_2780" data-name="Path 2780" d="M29.171-78.881s2.122-4.691,7.346.465S49.454-56.222,47.245-52.735s-8.674,2.4-8.674,2.4l-9.4-28.542" transform="translate(-29.171 80.835)" fill="none" clip-rule="evenodd"/>
    </clipPath>
    <clipPath id="clip-path-89">
      <path id="Path_2783" data-name="Path 2783" d="M68.433-40.731C60.324-24.692,40-18.642,31.813-22.781c-7.973-4.033-12.143-22.6-5.479-39.562,6.565-16.728,21.5-22.244,33.617-16.12s16.585,21.692,8.482,37.731" transform="translate(-23.016 80.887)" fill="none" clip-rule="evenodd"/>
    </clipPath>
    <clipPath id="clip-path-91">
      <path id="Path_2786" data-name="Path 2786" d="M26.558-69.309c.335,5.324,4.1,9.692,14.122,13.824,7.173,2.953,8.656,14.687,7.272,18.707-.527,1.539-4.685,8.414-4.685,8.414S63.96-38.527,56.018-62.539,27.2-81.06,26.583-79.6s-.186,7.719-.025,10.288" transform="translate(-26.256 81.18)" fill="none" clip-rule="evenodd"/>
    </clipPath>
    <clipPath id="clip-path-93">
      <path id="Path_2789" data-name="Path 2789" d="M46.2-73.235s-2.259,7.092-8.749,6.577-13.917,2.649-13.917,2.649,4.207-17.175,17.218-16.914S46.2-73.235,46.2-73.235" transform="translate(-23.534 80.925)" fill="none" clip-rule="evenodd"/>
    </clipPath>
    <clipPath id="clip-path-95">
      <path id="Path_2792" data-name="Path 2792" d="M41.378-55.48c5.2-3.45,18.112,6.037,27.568,23.559,10.908,20.2,27,48.881,22.232,51.717-6.5,3.866-22-19.793-37.21-36.776C38.555-34.185,30.619-48.332,41.378-55.48" transform="translate(-36.425 56.182)" fill="none" clip-rule="evenodd"/>
    </clipPath>
    <clipPath id="clip-path-97">
      <path id="Path_2795" data-name="Path 2795" d="M46.522-41.306s-1.588,4.771-1.657,5.566.292,7.483-.589,9.4-1.973,2.8-1.992,3.239,2.488,3.661,4.691.751,2.879-6.8,3.9-7.3,5.82,5.578,6.254,7.191S58.9-9.81,59.012-9.283s.714,1.948,1.291,2.029,2.575-1.973,2.774-2.606,1.359.242,1.83-.192l1.9-2.2s2.147-1.582,2.556-2.594a43.149,43.149,0,0,0,1.737-6.23c-.062-.558-.875-10.517-2.01-12.565S56.828-46.5,56.828-46.5L46.522-41.306" transform="translate(-42.284 46.499)" fill="none" clip-rule="evenodd"/>
    </clipPath>
    <clipPath id="clip-path-99">
      <path id="Path_2798" data-name="Path 2798" d="M29.061-18.128a53.317,53.317,0,0,0,14.321,0,26.7,26.7,0,0,0,11.7-5.7S61.251-2.312,45.87.226C32.238,2.472,29.061-18.128,29.061-18.128" transform="translate(-29.061 23.824)" fill="none" clip-rule="evenodd"/>
    </clipPath>
    <clipPath id="clip-path-101">
      <path id="Path_2801" data-name="Path 2801" d="M31.256-18.624,45.738,66.629l5.181-.757L38.485-20.169l-7.229,1.545" transform="translate(-31.256 20.169)" fill="none" clip-rule="evenodd"/>
    </clipPath>
    <clipPath id="clip-path-103">
      <path id="Path_2804" data-name="Path 2804" d="M45.84-6.384s8.1,13.458,9.71,22.834c.831,4.871-9.915,11.882-12.993,11.882-6.112.006-9.679-7.34-9.661-11.131.019-5.231.956-21.828.956-21.828L45.84-6.384" transform="translate(-32.897 6.384)" fill="none" clip-rule="evenodd"/>
    </clipPath>
    <clipPath id="clip-path-105">
      <path id="Path_2807" data-name="Path 2807" d="M45.512-3.1,35.038-1.572A1.927,1.927,0,0,1,32.86-3.191a1.934,1.934,0,0,1,1.626-2.184L44.953-6.9a1.929,1.929,0,0,1,2.184,1.619A1.925,1.925,0,0,1,45.512-3.1" transform="translate(-32.841 6.922)" fill="none" clip-rule="evenodd"/>
    </clipPath>
    <clipPath id="clip-path-107">
      <path id="Path_2810" data-name="Path 2810" d="M22.884-51.493s17.876,5.528,36.763,5.057,28.281-5.888,28.281-5.888l1.936,6.856s-10,3.394-30.4,4.821A106.1,106.1,0,0,1,21.14-45.586l1.744-5.907" transform="translate(-21.14 52.324)" fill="none" clip-rule="evenodd"/>
    </clipPath>
    <clipPath id="clip-path-109">
      <path id="Path_2813" data-name="Path 2813" d="M47.3-48.735l-3.63-19.688a31.284,31.284,0,0,0-15.127,4.945C22.359-59.265,17.4-49.213,17.4-49.213L28.4-41.618,47.3-48.735" transform="translate(-17.401 68.423)" fill="none" clip-rule="evenodd"/>
    </clipPath>
    <clipPath id="clip-path-111">
      <path id="Path_2816" data-name="Path 2816" d="M31.1-44.7l5.882-23.665s10.821,2.513,14.2,3.983c9.748,4.256,15.152,18.416,15.152,18.416L50.191-34.879,31.1-44.7" transform="translate(-31.105 68.366)" fill="none" clip-rule="evenodd"/>
    </clipPath>
    <clipPath id="clip-path-113">
      <path id="Path_2819" data-name="Path 2819" d="M23.443-57.049c-6.186.8-9.729,16.418-5.4,35.857C23.039,1.213,29.666,33.422,35.126,32.442c7.446-1.334,3.655-29.355,4.027-52.157.372-23.094-2.9-38.985-15.71-37.334" transform="translate(-16.131 57.167)" fill="none" clip-rule="evenodd"/>
    </clipPath>
    <clipPath id="clip-path-115">
      <path id="Path_2822" data-name="Path 2822" d="M32.937-44.8s3.8,3.3,4.263,3.952,3.562,6.589,5.293,7.787,3.127,1.4,3.369,1.775-.279,4.418-3.655,3.034-5.938-4.387-7.086-4.3-2.165,7.768-1.713,9.382,4.92,11.783,5.094,12.292l-.081,2.407L34.712-9.3c-.49-.453-1.042.9-1.675.763s-2.761-.918-2.761-.918-2.649-.267-3.518-.931a42.579,42.579,0,0,1-4.666-4.474c-.236-.515-4.6-9.493-4.666-11.839s4-17.318,4-17.318L32.937-44.8" transform="translate(-17.425 44.802)" fill="none" clip-rule="evenodd"/>
    </clipPath>
    <clipPath id="clip-path-117">
      <path id="Path_2825" data-name="Path 2825" d="M32.441-56.266h0a2.67,2.67,0,0,1-.906-3.655l4.889-8.116a2.669,2.669,0,0,1,3.655-.912,2.676,2.676,0,0,1,.906,3.655L36.1-57.172a2.67,2.67,0,0,1-3.655.906" transform="translate(-31.155 69.326)" fill="none" clip-rule="evenodd"/>
    </clipPath>
    <clipPath id="clip-path-119">
      <path id="Path_2828" data-name="Path 2828" d="M33.267-56.056h0a2.665,2.665,0,0,1-.912-3.648l4.889-8.122a2.67,2.67,0,0,1,3.655-.906,2.662,2.662,0,0,1,.906,3.648l-4.889,8.122a2.662,2.662,0,0,1-3.648.906" transform="translate(-31.977 69.112)" fill="none" clip-rule="evenodd"/>
    </clipPath>
    <clipPath id="clip-path-121">
      <path id="Path_2831" data-name="Path 2831" d="M34.013-55.649h0A2.672,2.672,0,0,1,33.1-59.3l4.889-8.116a2.672,2.672,0,0,1,3.655-.912,2.67,2.67,0,0,1,.906,3.655l-4.889,8.122a2.662,2.662,0,0,1-3.648.906" transform="translate(-32.723 68.709)" fill="none" clip-rule="evenodd"/>
    </clipPath>
    <clipPath id="clip-path-123">
      <path id="Path_2834" data-name="Path 2834" d="M34.648-55.1h0a2.672,2.672,0,0,1-.912-3.655l4.889-8.122a2.676,2.676,0,0,1,3.655-.906,2.67,2.67,0,0,1,.906,3.655L38.3-56.013a2.663,2.663,0,0,1-3.648.912" transform="translate(-33.358 68.161)" fill="none" clip-rule="evenodd"/>
    </clipPath>
  </defs>
  <g id="Group_2711" data-name="Group 2711" transform="translate(-763 -1612)">
    <ellipse id="Ellipse_131" data-name="Ellipse 131" cx="224.5" cy="51.5" rx="224.5" ry="51.5" transform="translate(763 2101)" fill="#89c4f4" opacity="0.1"/>
    <g id="Group_2692" data-name="Group 2692" transform="translate(850.377 1699.819)">
      <g id="Group_2569" data-name="Group 2569" transform="translate(14.565 -0.09)" clip-path="url(#clip-path)">
        <g id="Group_2568" data-name="Group 2568" transform="translate(-2096.403 -88.852)" clip-path="url(#clip-path-2)">
          <path id="Path_2649" data-name="Path 2649" d="M-2.13-78.68H182.934V184.991H-2.13Z" transform="translate(2067.509 136.508)" fill="#ffbc94"/>
        </g>
      </g>
      <g id="Group_2571" data-name="Group 2571" transform="translate(3.098 12.348)" clip-path="url(#clip-path-3)">
        <g id="Group_2570" data-name="Group 2570" transform="translate(-2084.936 -101.29)" clip-path="url(#clip-path-2)">
          <path id="Path_2652" data-name="Path 2652" d="M-3.978-76.675h94.71V92.844H-3.978Z" transform="translate(2057.89 146.942)" fill="#ffa37b"/>
        </g>
      </g>
      <g id="Group_2573" data-name="Group 2573" transform="translate(113.657 10.186)" clip-path="url(#clip-path-5)">
        <g id="Group_2572" data-name="Group 2572" transform="translate(-2195.494 -99.129)" clip-path="url(#clip-path-2)">
          <path id="Path_2655" data-name="Path 2655" d="M13.84-77.024H136.09V83.319H13.84Z" transform="translate(2150.63 145.129)" fill="#ffbc94"/>
        </g>
      </g>
      <g id="Group_2575" data-name="Group 2575" transform="translate(151.645 34.154)" clip-path="url(#clip-path-7)">
        <g id="Group_2574" data-name="Group 2574" transform="translate(-2233.482 -123.096)" clip-path="url(#clip-path-2)">
          <path id="Path_2658" data-name="Path 2658" d="M19.963-73.161H140.846v135.7H19.963Z" transform="translate(2182.496 165.233)" fill="#ffbc94"/>
        </g>
      </g>
      <g id="Group_2577" data-name="Group 2577" transform="translate(125.198 14.559)" clip-path="url(#clip-path-9)">
        <g id="Group_2576" data-name="Group 2576" transform="translate(-2207.036 -103.502)" clip-path="url(#clip-path-2)">
          <path id="Path_2661" data-name="Path 2661" d="M15.7-76.319H115.949V60.4H15.7Z" transform="translate(2160.312 148.797)" fill="#cedfff"/>
        </g>
      </g>
      <g id="Group_2579" data-name="Group 2579" transform="translate(0.623 12.685)" clip-path="url(#clip-path-11)">
        <g id="Group_2578" data-name="Group 2578" transform="translate(-2082.46 -101.628)" clip-path="url(#clip-path-2)">
          <path id="Path_2664" data-name="Path 2664" d="M-4.377-76.621H90.817V67.7H-4.377Z" transform="translate(2055.814 147.225)" fill="#cedfff"/>
        </g>
      </g>
      <g id="Group_2581" data-name="Group 2581" transform="translate(45.403 -33.242)" clip-path="url(#clip-path-13)">
        <g id="Group_2580" data-name="Group 2580" transform="translate(-2127.24 -55.7)" clip-path="url(#clip-path-2)">
          <path id="Path_2667" data-name="Path 2667" d="M2.84-84.023H126.557V16.128H2.84Z" transform="translate(2093.377 108.699)" fill="#ffbc94"/>
        </g>
      </g>
      <g id="Group_2583" data-name="Group 2583" transform="translate(45.403 -33.242)" clip-path="url(#clip-path-15)">
        <g id="Group_2582" data-name="Group 2582" transform="translate(-2127.24 -55.7)" clip-path="url(#clip-path-2)">
          <path id="Path_2670" data-name="Path 2670" d="M2.84-84.023H112.67V16.128H2.84Z" transform="translate(2093.377 108.699)" fill="#ffa37b"/>
        </g>
      </g>
      <g id="Group_2585" data-name="Group 2585" transform="translate(54.315 -85.739)" clip-path="url(#clip-path-17)">
        <g id="Group_2584" data-name="Group 2584" transform="translate(-2136.153 -3.203)" clip-path="url(#clip-path-2)">
          <path id="Path_2673" data-name="Path 2673" d="M4.276-92.484H120.134V39.269H4.276Z" transform="translate(2100.853 64.663)" fill="#ffbc94"/>
        </g>
      </g>
      <g id="Group_2587" data-name="Group 2587" transform="translate(29.06 154.383)" clip-path="url(#clip-path-19)">
        <g id="Group_2586" data-name="Group 2586" transform="translate(-2110.898 -243.326)" clip-path="url(#clip-path-2)">
          <path id="Path_2676" data-name="Path 2676" d="M.206-53.784H109.428V147.952H.206Z" transform="translate(2079.668 266.086)" fill="#ffbc94"/>
        </g>
      </g>
      <g id="Group_2589" data-name="Group 2589" transform="translate(37.358 278.103)" clip-path="url(#clip-path-21)">
        <g id="Group_2588" data-name="Group 2588" transform="translate(-2119.196 -367.045)" clip-path="url(#clip-path-2)">
          <path id="Path_2679" data-name="Path 2679" d="M1.543-33.845H94.175V69.565H1.543Z" transform="translate(2086.628 369.866)" fill="#ffbc94"/>
        </g>
      </g>
      <g id="Group_2591" data-name="Group 2591" transform="translate(33.969 296.317)" clip-path="url(#clip-path-23)">
        <g id="Group_2590" data-name="Group 2590" transform="translate(-2115.807 -385.26)" clip-path="url(#clip-path-2)">
          <path id="Path_2682" data-name="Path 2682" d="M1-30.909H97.831V151.734H1Z" transform="translate(2083.786 385.145)" fill="#ffbc94"/>
        </g>
      </g>
      <g id="Group_2593" data-name="Group 2593" transform="translate(76.235 153.645)" clip-path="url(#clip-path-25)">
        <g id="Group_2592" data-name="Group 2592" transform="translate(-2158.072 -242.587)" clip-path="url(#clip-path-2)">
          <path id="Path_2685" data-name="Path 2685" d="M7.809-53.9H117.037V147.833H7.809Z" transform="translate(2119.239 265.466)" fill="#ffbc94"/>
        </g>
      </g>
      <g id="Group_2595" data-name="Group 2595" transform="translate(84.533 277.364)" clip-path="url(#clip-path-27)">
        <g id="Group_2594" data-name="Group 2594" transform="translate(-2166.37 -366.307)" clip-path="url(#clip-path-2)">
          <path id="Path_2688" data-name="Path 2688" d="M9.146-33.964h92.632V69.452H9.146Z" transform="translate(2126.2 369.247)" fill="#ffbc94"/>
        </g>
      </g>
      <g id="Group_2597" data-name="Group 2597" transform="translate(83.719 295.579)" clip-path="url(#clip-path-29)">
        <g id="Group_2596" data-name="Group 2596" transform="translate(-2165.556 -384.522)" clip-path="url(#clip-path-2)">
          <path id="Path_2691" data-name="Path 2691" d="M9.015-31.028H105.85V151.615H9.015Z" transform="translate(2125.517 384.526)" fill="#ffbc94"/>
        </g>
      </g>
      <g id="Group_2599" data-name="Group 2599" transform="translate(26.547 146.801)" clip-path="url(#clip-path-31)">
        <g id="Group_2598" data-name="Group 2598" transform="translate(-2108.385 -235.744)" clip-path="url(#clip-path-2)">
          <path id="Path_2694" data-name="Path 2694" d="M-.2-55.006H111.536V284.972H-.2Z" transform="translate(2077.56 259.726)" fill="#00223e"/>
        </g>
      </g>
      <g id="Group_2601" data-name="Group 2601" transform="translate(14.452 0.09)" clip-path="url(#clip-path-33)">
        <g id="Group_2600" data-name="Group 2600" transform="translate(-2096.289 -89.032)" clip-path="url(#clip-path-2)">
          <path id="Path_2697" data-name="Path 2697" d="M-2.148-78.651H183.378V131.43H-2.148Z" transform="translate(2067.414 136.659)" fill="#cedfff"/>
        </g>
      </g>
      <g id="Group_2603" data-name="Group 2603" transform="translate(76.148 146.808)" clip-path="url(#clip-path-35)">
        <g id="Group_2602" data-name="Group 2602" transform="translate(-2157.985 -235.75)" clip-path="url(#clip-path-2)">
          <path id="Path_2700" data-name="Path 2700" d="M7.795-55.005H119.53V284.973H7.795Z" transform="translate(2119.166 259.731)" fill="#00223e"/>
        </g>
      </g>
      <g id="Group_2605" data-name="Group 2605" transform="translate(53.149 -87.819)" clip-path="url(#clip-path-37)">
        <g id="Group_2604" data-name="Group 2604" transform="translate(-2134.987 -1.123)" clip-path="url(#clip-path-2)">
          <path id="Path_2703" data-name="Path 2703" d="M4.088-92.819H119.718V26.461H4.088Z" transform="translate(2099.875 62.919)" fill="#8d3a25"/>
        </g>
      </g>
      <g id="Group_2607" data-name="Group 2607" transform="translate(61.192 -55.768)" clip-path="url(#clip-path-39)">
        <g id="Group_2606" data-name="Group 2606" transform="translate(-2143.029 -33.175)" clip-path="url(#clip-path-2)">
          <path id="Path_2706" data-name="Path 2706" d="M5.385-87.653h71.37V-6.619H5.385Z" transform="translate(2106.621 89.804)" fill="#ffbc94"/>
        </g>
      </g>
      <g id="Group_2609" data-name="Group 2609" transform="translate(33.946 424.042)" clip-path="url(#clip-path-41)">
        <g id="Group_2608" data-name="Group 2608" transform="translate(-2115.783 -512.985)" clip-path="url(#clip-path-2)">
          <path id="Path_2709" data-name="Path 2709" d="M.993-10.324h96.86V77.441H.993Z" transform="translate(2083.766 492.285)" fill="#181818"/>
        </g>
      </g>
      <g id="Group_2611" data-name="Group 2611" transform="translate(82.421 424.042)" clip-path="url(#clip-path-43)">
        <g id="Group_2610" data-name="Group 2610" transform="translate(-2164.258 -512.985)" clip-path="url(#clip-path-2)">
          <path id="Path_2712" data-name="Path 2712" d="M8.806-10.324h96.86V77.441H8.806Z" transform="translate(2124.428 492.285)" fill="#181818"/>
        </g>
      </g>
      <g id="Group_2613" data-name="Group 2613" transform="translate(12.772 17.618)" clip-path="url(#clip-path-45)">
        <g id="Group_2612" data-name="Group 2612" transform="translate(-2094.61 -106.561)" clip-path="url(#clip-path-2)">
          <path id="Path_2715" data-name="Path 2715" d="M-2.419-75.826h167.69V116.726H-2.419Z" transform="translate(2066.005 151.363)" fill="#b8d1ff"/>
        </g>
      </g>
      <g id="Group_2615" data-name="Group 2615" transform="translate(97.442 146.808)" clip-path="url(#clip-path-47)">
        <g id="Group_2614" data-name="Group 2614" transform="translate(-2179.28 -235.75)" clip-path="url(#clip-path-2)">
          <path id="Path_2718" data-name="Path 2718" d="M11.227-55.005h90.44V284.973H11.227Z" transform="translate(2137.029 259.731)" fill="#002c55"/>
        </g>
      </g>
      <g id="Group_2617" data-name="Group 2617" transform="translate(47.957 174.811)" clip-path="url(#clip-path-49)">
        <g id="Group_2616" data-name="Group 2616" transform="translate(-2129.795 -263.753)" clip-path="url(#clip-path-2)">
          <path id="Path_2721" data-name="Path 2721" d="M3.252-50.492H93.893V261.117H3.252Z" transform="translate(2095.519 283.221)" fill="#002c55"/>
        </g>
      </g>
      <g id="Group_2619" data-name="Group 2619" transform="translate(4.065 77.761)" clip-path="url(#clip-path-51)">
        <g id="Group_2618" data-name="Group 2618" transform="translate(-2085.902 -166.703)" clip-path="url(#clip-path-2)">
          <path id="Path_2724" data-name="Path 2724" d="M-3.822-66.133H146.012V41.834H-3.822Z" transform="translate(2058.701 201.813)" fill="#ffbc94"/>
        </g>
      </g>
      <g id="Group_2621" data-name="Group 2621" transform="translate(86.471 51.738)" clip-path="url(#clip-path-53)">
        <g id="Group_2620" data-name="Group 2620" transform="translate(-2168.308 -140.68)" clip-path="url(#clip-path-2)">
          <path id="Path_2727" data-name="Path 2727" d="M9.459-70.327H89.967V28.157H9.459Z" transform="translate(2127.826 179.984)" fill="#ffbc94"/>
        </g>
      </g>
      <g id="Group_2623" data-name="Group 2623" transform="translate(97.322 37.708)" clip-path="url(#clip-path-55)">
        <g id="Group_2622" data-name="Group 2622" transform="translate(-2179.159 -126.651)" clip-path="url(#clip-path-2)">
          <path id="Path_2730" data-name="Path 2730" d="M11.208-72.588h93.533v143.6H11.208Z" transform="translate(2136.928 168.215)" fill="#ffa37b"/>
        </g>
      </g>
      <g id="Group_2625" data-name="Group 2625" transform="translate(258.475 199.405)" clip-path="url(#clip-path-57)">
        <g id="Group_2624" data-name="Group 2624" transform="translate(-2340.312 -288.348)" clip-path="url(#clip-path-2)">
          <path id="Path_2733" data-name="Path 2733" d="M37.18-46.528h79.775v298.79H37.18Z" transform="translate(2272.108 303.852)" fill="#868685"/>
        </g>
      </g>
      <g id="Group_2627" data-name="Group 2627" transform="translate(264.135 183.051)" clip-path="url(#clip-path-59)">
        <g id="Group_2626" data-name="Group 2626" transform="translate(-2345.972 -271.993)" clip-path="url(#clip-path-2)">
          <path id="Path_2736" data-name="Path 2736" d="M38.092-49.164h80.672V31.508H38.092Z" transform="translate(2276.856 290.133)" fill="#465054"/>
        </g>
      </g>
      <g id="Group_2629" data-name="Group 2629" transform="translate(256.101 427.247)" clip-path="url(#clip-path-61)">
        <g id="Group_2628" data-name="Group 2628" transform="translate(-2337.938 -516.189)" clip-path="url(#clip-path-2)">
          <path id="Path_2739" data-name="Path 2739" d="M36.8-9.808H109.81V69.6H36.8Z" transform="translate(2270.117 494.973)" fill="#465054"/>
        </g>
      </g>
      <g id="Group_2631" data-name="Group 2631" transform="translate(121.93 415.331)" clip-path="url(#clip-path-63)">
        <g id="Group_2630" data-name="Group 2630" transform="translate(-2203.767 -504.273)" clip-path="url(#clip-path-2)">
          <path id="Path_2742" data-name="Path 2742" d="M15.174-11.728H105.31V83.094H15.174Z" transform="translate(2157.57 484.978)" fill="#181818"/>
        </g>
      </g>
      <g id="Group_2633" data-name="Group 2633" transform="translate(112.47 166.338)" clip-path="url(#clip-path-65)">
        <g id="Group_2632" data-name="Group 2632" transform="translate(-2194.307 -255.28)" clip-path="url(#clip-path-2)">
          <path id="Path_2745" data-name="Path 2745" d="M13.649-51.857H122.4V151.327H13.649Z" transform="translate(2149.635 276.114)" fill="#ffbc94"/>
        </g>
      </g>
      <g id="Group_2635" data-name="Group 2635" transform="translate(119.938 284.696)" clip-path="url(#clip-path-67)">
        <g id="Group_2634" data-name="Group 2634" transform="translate(-2201.776 -373.638)" clip-path="url(#clip-path-2)">
          <path id="Path_2748" data-name="Path 2748" d="M14.853-32.782H108.6V165.476H14.853Z" transform="translate(2155.899 375.397)" fill="#ffbc94"/>
        </g>
      </g>
      <g id="Group_2637" data-name="Group 2637" transform="translate(199.799 37.477)" clip-path="url(#clip-path-69)">
        <g id="Group_2636" data-name="Group 2636" transform="translate(-2281.636 -126.419)" clip-path="url(#clip-path-2)">
          <path id="Path_2751" data-name="Path 2751" d="M27.723-72.625H129.34V83.113H27.723Z" transform="translate(2222.889 168.021)" fill="#ffa37b"/>
        </g>
      </g>
      <g id="Group_2639" data-name="Group 2639" transform="translate(112.561 28.309)" clip-path="url(#clip-path-71)">
        <g id="Group_2638" data-name="Group 2638" transform="translate(-2194.399 -117.251)" clip-path="url(#clip-path-2)">
          <path id="Path_2754" data-name="Path 2754" d="M13.664-74.1H174.625v242.11H13.664Z" transform="translate(2149.711 160.331)" fill="#ffbc94"/>
        </g>
      </g>
      <g id="Group_2641" data-name="Group 2641" transform="translate(165.431 166.338)" clip-path="url(#clip-path-73)">
        <g id="Group_2640" data-name="Group 2640" transform="translate(-2247.268 -255.28)" clip-path="url(#clip-path-2)">
          <path id="Path_2757" data-name="Path 2757" d="M22.184-51.857H131.024V151.307H22.184Z" transform="translate(2194.06 276.114)" fill="#ffbc94"/>
        </g>
      </g>
      <g id="Group_2643" data-name="Group 2643" transform="translate(172.931 282.262)" clip-path="url(#clip-path-75)">
        <g id="Group_2642" data-name="Group 2642" transform="translate(-2254.769 -371.204)" clip-path="url(#clip-path-2)">
          <path id="Path_2760" data-name="Path 2760" d="M23.393-33.174h92.328V72.995H23.393Z" transform="translate(2200.352 373.355)" fill="#ffbc94"/>
        </g>
      </g>
      <g id="Group_2645" data-name="Group 2645" transform="translate(137.755 -3.739)" clip-path="url(#clip-path-77)">
        <g id="Group_2644" data-name="Group 2644" transform="translate(-2219.592 -85.204)" clip-path="url(#clip-path-2)">
          <path id="Path_2763" data-name="Path 2763" d="M17.724-79.268H128.206v96.54H17.724Z" transform="translate(2170.844 133.448)" fill="#ffbc94"/>
        </g>
      </g>
      <g id="Group_2647" data-name="Group 2647" transform="translate(137.755 -3.739)" clip-path="url(#clip-path-79)">
        <g id="Group_2646" data-name="Group 2646" transform="translate(-2219.592 -85.204)" clip-path="url(#clip-path-2)">
          <path id="Path_2766" data-name="Path 2766" d="M17.724-79.268H115.84V21.485H17.724Z" transform="translate(2170.844 133.448)" fill="#ffa37b"/>
        </g>
      </g>
      <g id="Group_2649" data-name="Group 2649" transform="translate(108.69 51.294)" clip-path="url(#clip-path-81)">
        <g id="Group_2648" data-name="Group 2648" transform="translate(-2190.527 -140.237)" clip-path="url(#clip-path-2)">
          <path id="Path_2769" data-name="Path 2769" d="M13.04-70.4H195.753V236.672H13.04Z" transform="translate(2146.464 179.611)" fill="#87bc4f"/>
        </g>
      </g>
      <g id="Group_2651" data-name="Group 2651" transform="translate(108.69 55.281)" clip-path="url(#clip-path-83)">
        <g id="Group_2650" data-name="Group 2650" transform="translate(-2190.527 -144.224)" clip-path="url(#clip-path-2)">
          <path id="Path_2772" data-name="Path 2772" d="M13.04-69.756H160.286v298.9H13.04Z" transform="translate(2146.464 182.956)" fill="#74a940"/>
        </g>
      </g>
      <g id="Group_2653" data-name="Group 2653" transform="translate(126.913 414.887)" clip-path="url(#clip-path-85)">
        <g id="Group_2652" data-name="Group 2652" transform="translate(-2208.751 -503.829)" clip-path="url(#clip-path-2)">
          <path id="Path_2775" data-name="Path 2775" d="M15.977-11.8H99.158V75.45H15.977Z" transform="translate(2161.75 484.605)" fill="#ffbc94"/>
        </g>
      </g>
      <g id="Group_2655" data-name="Group 2655" transform="translate(177.757 -44.484)" clip-path="url(#clip-path-87)">
        <g id="Group_2654" data-name="Group 2654" transform="translate(-2259.594 -44.458)" clip-path="url(#clip-path-2)">
          <path id="Path_2778" data-name="Path 2778" d="M24.171-85.835h80.51v92.7H24.171Z" transform="translate(2204.4 99.269)" fill="#8d3a25"/>
        </g>
      </g>
      <g id="Group_2657" data-name="Group 2657" transform="translate(139.569 -44.806)" clip-path="url(#clip-path-89)">
        <g id="Group_2656" data-name="Group 2656" transform="translate(-2221.406 -44.136)" clip-path="url(#clip-path-2)">
          <path id="Path_2781" data-name="Path 2781" d="M18.016-85.887H129.581V35.529H18.016Z" transform="translate(2172.366 98.999)" fill="#ffbc94"/>
        </g>
      </g>
      <g id="Group_2659" data-name="Group 2659" transform="translate(159.673 -46.628)" clip-path="url(#clip-path-91)">
        <g id="Group_2658" data-name="Group 2658" transform="translate(-2241.51 -42.314)" clip-path="url(#clip-path-2)">
          <path id="Path_2784" data-name="Path 2784" d="M21.256-86.18h93.624V28.684H21.256Z" transform="translate(2189.23 97.471)" fill="#8d3a25"/>
        </g>
      </g>
      <g id="Group_2661" data-name="Group 2661" transform="translate(142.781 -45.047)" clip-path="url(#clip-path-93)">
        <g id="Group_2660" data-name="Group 2660" transform="translate(-2224.618 -43.896)" clip-path="url(#clip-path-2)">
          <path id="Path_2787" data-name="Path 2787" d="M18.534-85.925h86.9V-6.961h-86.9Z" transform="translate(2175.06 98.797)" fill="#8d3a25"/>
        </g>
      </g>
      <g id="Group_2663" data-name="Group 2663" transform="translate(222.764 108.48)" clip-path="url(#clip-path-95)">
        <g id="Group_2662" data-name="Group 2662" transform="translate(-2304.602 -197.422)" clip-path="url(#clip-path-2)">
          <path id="Path_2790" data-name="Path 2790" d="M31.425-61.182H149.085V77.264H31.425Z" transform="translate(2242.153 227.581)" fill="#ffbc94"/>
        </g>
      </g>
      <g id="Group_2665" data-name="Group 2665" transform="translate(259.12 168.561)" clip-path="url(#clip-path-97)">
        <g id="Group_2664" data-name="Group 2664" transform="translate(-2340.957 -257.504)" clip-path="url(#clip-path-2)">
          <path id="Path_2793" data-name="Path 2793" d="M37.284-51.5h90.87V49.8H37.284Z" transform="translate(2272.65 277.979)" fill="#ffbc94"/>
        </g>
      </g>
      <g id="Group_2667" data-name="Group 2667" transform="translate(177.074 309.254)" clip-path="url(#clip-path-99)">
        <g id="Group_2666" data-name="Group 2666" transform="translate(-2258.912 -398.197)" clip-path="url(#clip-path-2)">
          <path id="Path_2796" data-name="Path 2796" d="M24.061-28.824h89.292V57.444H24.061Z" transform="translate(2203.827 395.997)" fill="#465054"/>
        </g>
      </g>
      <g id="Group_2669" data-name="Group 2669" transform="translate(190.694 331.933)" clip-path="url(#clip-path-101)">
        <g id="Group_2668" data-name="Group 2668" transform="translate(-2272.531 -420.875)" clip-path="url(#clip-path-2)">
          <path id="Path_2799" data-name="Path 2799" d="M26.256-25.169h81.711V123.677H26.256Z" transform="translate(2215.251 415.02)" fill="#868685"/>
        </g>
      </g>
      <g id="Group_2671" data-name="Group 2671" transform="translate(200.876 417.465)" clip-path="url(#clip-path-103)">
        <g id="Group_2670" data-name="Group 2670" transform="translate(-2282.713 -506.408)" clip-path="url(#clip-path-2)">
          <path id="Path_2802" data-name="Path 2802" d="M27.9-11.384h84.747V85.379H27.9Z" transform="translate(2223.792 486.768)" fill="#465054"/>
        </g>
      </g>
      <g id="Group_2673" data-name="Group 2673" transform="translate(200.528 414.125)" clip-path="url(#clip-path-105)">
        <g id="Group_2672" data-name="Group 2672" transform="translate(-2282.365 -503.068)" clip-path="url(#clip-path-2)">
          <path id="Path_2805" data-name="Path 2805" d="M27.841-11.922H104.2V55.5H27.841Z" transform="translate(2223.5 483.966)" fill="#868685"/>
        </g>
      </g>
      <g id="Group_2675" data-name="Group 2675" transform="translate(127.926 132.419)" clip-path="url(#clip-path-107)">
        <g id="Group_2674" data-name="Group 2674" transform="translate(-2209.764 -221.361)" clip-path="url(#clip-path-2)">
          <path id="Path_2808" data-name="Path 2808" d="M16.14-57.324H146.912V16.608H16.14Z" transform="translate(2162.6 247.661)" fill="#2f2f2f"/>
        </g>
      </g>
      <g id="Group_2677" data-name="Group 2677" transform="translate(104.727 32.528)" clip-path="url(#clip-path-109)">
        <g id="Group_2676" data-name="Group 2676" transform="translate(-2186.564 -121.471)" clip-path="url(#clip-path-2)">
          <path id="Path_2811" data-name="Path 2811" d="M12.4-73.423h91.948V15.429H12.4Z" transform="translate(2143.139 163.87)" fill="#87bc4f"/>
        </g>
      </g>
      <g id="Group_2679" data-name="Group 2679" transform="translate(189.757 32.882)" clip-path="url(#clip-path-111)">
        <g id="Group_2678" data-name="Group 2678" transform="translate(-2271.594 -121.824)" clip-path="url(#clip-path-2)">
          <path id="Path_2814" data-name="Path 2814" d="M26.1-73.366h97.278V22.169H26.1Z" transform="translate(2214.466 164.167)" fill="#87bc4f"/>
        </g>
      </g>
      <g id="Group_2681" data-name="Group 2681" transform="translate(96.844 102.369)" clip-path="url(#clip-path-113)">
        <g id="Group_2680" data-name="Group 2680" transform="translate(-2178.681 -191.312)" clip-path="url(#clip-path-2)">
          <path id="Path_2817" data-name="Path 2817" d="M11.131-62.167H96.84V89.511H11.131Z" transform="translate(2136.527 222.455)" fill="#ffbc94"/>
        </g>
      </g>
      <g id="Group_2683" data-name="Group 2683" transform="translate(104.875 179.091)" clip-path="url(#clip-path-115)">
        <g id="Group_2682" data-name="Group 2682" transform="translate(-2186.713 -268.033)" clip-path="url(#clip-path-2)">
          <path id="Path_2820" data-name="Path 2820" d="M12.425-49.8h90.534V48.575H12.425Z" transform="translate(2143.264 286.812)" fill="#ffbc94"/>
        </g>
      </g>
      <g id="Group_2685" data-name="Group 2685" transform="translate(190.065 26.927)" clip-path="url(#clip-path-117)">
        <g id="Group_2684" data-name="Group 2684" transform="translate(-2271.903 -115.869)" clip-path="url(#clip-path-2)">
          <path id="Path_2823" data-name="Path 2823" d="M26.155-74.326H98.41V1.162H26.155Z" transform="translate(2214.724 159.171)" fill="#ffbc94"/>
        </g>
      </g>
      <g id="Group_2687" data-name="Group 2687" transform="translate(195.169 28.251)" clip-path="url(#clip-path-119)">
        <g id="Group_2686" data-name="Group 2686" transform="translate(-2277.006 -117.194)" clip-path="url(#clip-path-2)">
          <path id="Path_2826" data-name="Path 2826" d="M26.977-74.112H99.232V1.372H26.977Z" transform="translate(2219.005 160.282)" fill="#ffbc94"/>
        </g>
      </g>
      <g id="Group_2689" data-name="Group 2689" transform="translate(199.797 30.755)" clip-path="url(#clip-path-121)">
        <g id="Group_2688" data-name="Group 2688" transform="translate(-2281.635 -119.697)" clip-path="url(#clip-path-2)">
          <path id="Path_2829" data-name="Path 2829" d="M27.723-73.709H99.978V1.779H27.723Z" transform="translate(2222.888 162.382)" fill="#ffbc94"/>
        </g>
      </g>
      <g id="Group_2691" data-name="Group 2691" transform="translate(203.738 34.155)" clip-path="url(#clip-path-123)">
        <g id="Group_2690" data-name="Group 2690" transform="translate(-2285.575 -123.097)" clip-path="url(#clip-path-2)">
          <path id="Path_2832" data-name="Path 2832" d="M28.358-73.161h72.255V2.324H28.358Z" transform="translate(2226.193 165.234)" fill="#ffbc94"/>
        </g>
      </g>
    </g>
  </g>
</svg>
