<svg id="Component_57_1" data-name="Component 57 – 1" xmlns="http://www.w3.org/2000/svg" width="291" height="28" viewBox="0 0 291 28">
  <g id="Header_-_AllyRight_Logo" data-name="Header - AllyRight Logo" transform="translate(-263.424 -29.221)">
    <path id="Path_3" data-name="Path 3" d="M313.746,58.121a.578.578,0,0,1-.2-.44,1.253,1.253,0,0,1,.126-.5l2.487-5.822L310.111,37.1a1.182,1.182,0,0,1-.126-.44.834.834,0,0,1,.221-.488.616.616,0,0,1,.472-.2h2.612a.849.849,0,0,1,.818.6l4.186,10.26,4.249-10.26a.967.967,0,0,1,.881-.6h2.549a.638.638,0,0,1,.472.189.6.6,0,0,1,.189.44,1.272,1.272,0,0,1-.125.5L317.6,57.711a.892.892,0,0,1-.881.6H314.2A.656.656,0,0,1,313.746,58.121Z" transform="translate(-7.514 -1.088)" fill="#96281b"/>
    <path id="Path_4" data-name="Path 4" d="M332.411,52.116a.535.535,0,0,1-.164-.4v-15.2a.59.59,0,0,1,.152-.421.528.528,0,0,1,.408-.163h6.049a6.9,6.9,0,0,1,4.5,1.331,4.615,4.615,0,0,1,1.623,3.783,4.832,4.832,0,0,1-.818,2.861,4.545,4.545,0,0,1-2.289,1.67l3.386,5.955a.582.582,0,0,1,.07.257.457.457,0,0,1-.152.35.487.487,0,0,1-.339.14h-2.149a.88.88,0,0,1-.584-.175,1.688,1.688,0,0,1-.374-.455l-2.99-5.536h-3.2v5.605a.538.538,0,0,1-.164.4.565.565,0,0,1-.42.164h-2.149A.535.535,0,0,1,332.411,52.116Zm6.375-8.664a3.092,3.092,0,0,0,2.1-.619,2.288,2.288,0,0,0,.7-1.81,2.364,2.364,0,0,0-.7-1.834,3.018,3.018,0,0,0-2.1-.642h-3.246v4.9Z" transform="translate(-11.106 -1.083)" fill="#1f3a93"/>
    <path id="Path_5" data-name="Path 5" d="M350.513,37.865a.541.541,0,0,1-.164-.4v-1.7a.569.569,0,0,1,.164-.421.542.542,0,0,1,.4-.164h2.149a.561.561,0,0,1,.584.585v1.7a.522.522,0,0,1-.176.4.578.578,0,0,1-.408.164h-2.149A.539.539,0,0,1,350.513,37.865Zm.093,14.129a.538.538,0,0,1-.164-.4V40.575a.531.531,0,0,1,.164-.409.564.564,0,0,1,.4-.151h1.986a.557.557,0,0,1,.56.56V51.6a.558.558,0,0,1-.56.56H351A.537.537,0,0,1,350.606,51.994Z" transform="translate(-14.028 -0.961)" fill="#1f3a93"/>
    <path id="Path_6" data-name="Path 6" d="M359.908,57.493a4.584,4.584,0,0,1-1.822-1.577,3.078,3.078,0,0,1-.538-1.519.5.5,0,0,1,.164-.384.558.558,0,0,1,.4-.153h2.078a.619.619,0,0,1,.362.106.736.736,0,0,1,.245.385,2.743,2.743,0,0,0,.771,1.04,2.436,2.436,0,0,0,1.588.431,2.331,2.331,0,0,0,2.71-2.779V51.456a4.42,4.42,0,0,1-3.574,1.494,4.482,4.482,0,0,1-3.655-1.472,6.47,6.47,0,0,1-1.319-4.016l-.023-.631.023-.631a6.562,6.562,0,0,1,1.331-4.017,4.427,4.427,0,0,1,3.643-1.518,4.8,4.8,0,0,1,2.172.466A4.377,4.377,0,0,1,366,42.394v-.91a.552.552,0,0,1,.175-.421.583.583,0,0,1,.409-.163H368.5a.542.542,0,0,1,.4.163.571.571,0,0,1,.164.421l.023,11.257a5.383,5.383,0,0,1-1.448,4.017,6,6,0,0,1-4.368,1.424A7.115,7.115,0,0,1,359.908,57.493Zm5.231-7.859a3.6,3.6,0,0,0,.725-2.055q.023-.187.023-.747t-.023-.747a3.6,3.6,0,0,0-.725-2.056,2.332,2.332,0,0,0-1.962-.84q-2.522,0-2.663,3.083l-.023.561q0,3.643,2.686,3.643A2.332,2.332,0,0,0,365.139,49.634Z" transform="translate(-15.148 -1.847)" fill="#1f3a93"/>
    <path id="Path_7" data-name="Path 7" d="M374.819,52.071a.54.54,0,0,1-.163-.4V36.213a.533.533,0,0,1,.163-.408.562.562,0,0,1,.4-.152h2.125a.524.524,0,0,1,.561.56v5.325a4.641,4.641,0,0,1,3.76-1.681A4.414,4.414,0,0,1,385.1,41.27a5.5,5.5,0,0,1,1.285,3.842v6.562a.562.562,0,0,1-.152.4.53.53,0,0,1-.409.164h-2.125a.564.564,0,0,1-.42-.164.538.538,0,0,1-.164-.4V45.252a3.1,3.1,0,0,0-.666-2.114,2.4,2.4,0,0,0-1.9-.759,2.5,2.5,0,0,0-1.915.771,2.947,2.947,0,0,0-.724,2.1v6.422a.559.559,0,0,1-.153.4.527.527,0,0,1-.408.164h-2.125A.538.538,0,0,1,374.819,52.071Z" transform="translate(-17.95 -1.038)" fill="#1f3a93"/>
    <path id="Path_8" data-name="Path 8" d="M393.521,51.126a4.5,4.5,0,0,1-1.074-3.258V42.589H390.6a.56.56,0,0,1-.561-.56V40.651a.558.558,0,0,1,.561-.56h1.845V36.213a.528.528,0,0,1,.164-.408.56.56,0,0,1,.4-.152h1.939a.523.523,0,0,1,.56.56v3.878h2.919a.556.556,0,0,1,.56.56v1.378a.557.557,0,0,1-.56.56h-2.919V47.61a2.7,2.7,0,0,0,.351,1.518,1.282,1.282,0,0,0,1.144.514h1.634a.523.523,0,0,1,.561.561v1.471a.558.558,0,0,1-.152.4.528.528,0,0,1-.409.164h-1.915A4.259,4.259,0,0,1,393.521,51.126Z" transform="translate(-20.433 -1.038)" fill="#1f3a93"/>
    <path id="Path_9" data-name="Path 9" d="M263.613,51.031a.639.639,0,0,1-.189-.471l.063-.283,7.543-20.271a1.133,1.133,0,0,1,1.13-.785h3.458a1.134,1.134,0,0,1,1.131.785l7.543,20.271.063.283a.615.615,0,0,1-.2.471.659.659,0,0,1-.456.189h-2.8a.911.911,0,0,1-.912-.6l-1.446-3.8h-9.3l-1.445,3.8a.911.911,0,0,1-.912.6h-2.8A.638.638,0,0,1,263.613,51.031Zm6.725-7.856h7.1l-3.552-9.68Z" fill="#96281b"/>
    <g id="Group_13" data-name="Group 13" transform="translate(282.28 29.324)">
      <path id="Path_10" data-name="Path 10" d="M309.116,47.955a.777.777,0,0,0-.558-.207h-3.313l-.03.128V30.1a.749.749,0,0,0-.753-.753h-2.823a1.427,1.427,0,0,0-.783.219l-3.329,2.651a.724.724,0,0,0-.189,1.066l.856,1.116c.852-.789,1.483-.5,1.582-.646.167-.238.635-.968.933-.933s.164.622.164.622c.183-.21.479-.335.641-.2.307.251-.372,1.645-.359,2.669a19.376,19.376,0,0,0,.6,4.5,6.63,6.63,0,0,0,.634,1.1,5,5,0,0,1,1.384,1.816,3.96,3.96,0,0,1-.061,2.657c-.2.441-.488.173-.741-.62-.177-.554-.719-.608-1.24-.8.081.823-.46,5.532-.589,6.627a.726.726,0,0,0,.4.115h2.864l0,0h4.15a.774.774,0,0,0,.558-.208.667.667,0,0,0,.218-.5V48.459A.672.672,0,0,0,309.116,47.955Z" transform="translate(-287.728 -29.344)" fill="#96281b"/>
      <path id="Path_11" data-name="Path 11" d="M297.027,47.748h-3.547c-.169-1.477-.249-2.918-.255-3.786-.75,0-1.4,1.011-1.569.259.01-1.026,1.219-1.844,1.678-2.119a15.986,15.986,0,0,1,.609-2.806V30.1a.749.749,0,0,0-.753-.753h-2.822a1.43,1.43,0,0,0-.784.219l-3.329,2.651a.724.724,0,0,0-.189,1.066l1.349,1.757a.69.69,0,0,0,.6.314.711.711,0,0,0,.47-.157l1.04-.832V50.546a.75.75,0,0,0,.752.752h2.6v0h4.15a.776.776,0,0,0,.559-.208.67.67,0,0,0,.217-.5V48.459a.674.674,0,0,0-.217-.5A.779.779,0,0,0,297.027,47.748Z" transform="translate(-285.909 -29.344)" fill="#96281b"/>
    </g>
  </g>
  <g id="Component_51_22" data-name="Component 51 – 22" transform="translate(130 1)">
    <g id="Rectangle_255" data-name="Rectangle 255" fill="#f9f9f9" stroke="#ebeaea" stroke-width="1">
      <rect width="48" height="24" rx="4" stroke="none"/>
      <rect x="0.5" y="0.5" width="47" height="23" rx="3.5" fill="none"/>
    </g>
    <path id="Union_2" data-name="Union 2" d="M7.062-4458.343l-.718-2H2.188l-.719,2H0l3.656-9.345H5l3.657,9.345Zm-4.344-3.344H5.938l-1.594-4.187Zm6.625-4v-2h-2V-4469h2v-2h1.313v2h2v1.312h-2v2Z" transform="translate(6 4476.344)" fill="#1f3a93" stroke="rgba(0,0,0,0)" stroke-miterlimit="10" stroke-width="1"/>
    <path id="Path_446" data-name="Path 446" d="M2.656,0H1.063L.344-2H-3.812l-.719,2H-6l3.656-9.344H-1ZM-.062-3.344-1.656-7.531-3.281-3.344Zm6.719-6H1.344v-1.312H6.656Z" transform="translate(36 18)" fill="#1f3a93"/>
    <line id="Line_244" data-name="Line 244" y2="23" transform="translate(24.5 0.5)" fill="none" stroke="#ebeaea" stroke-width="1"/>
    <text id="Skip_to_Content" data-name="Skip to Content" transform="translate(57 18)" fill="#1f3a93" font-size="15" font-family="SegoeUI, Segoe UI"><tspan x="0" y="0">Skip to Content</tspan></text>
  </g>
</svg>
